<?xml version="1.0" encoding="UTF-8" standalone="no"?>
<svg
   xmlns:dc="http://purl.org/dc/elements/1.1/"
   xmlns:cc="http://creativecommons.org/ns#"
   xmlns:rdf="http://www.w3.org/1999/02/22-rdf-syntax-ns#"
   xmlns:svg="http://www.w3.org/2000/svg"
   xmlns="http://www.w3.org/2000/svg"
   viewBox="0 0 259.89065 37.796932"
   height="37.796932"
   width="259.89066"
   xml:space="preserve"
   id="svg2"
   version="1.1"><metadata
     id="metadata8"><rdf:RDF><cc:Work
         rdf:about=""><dc:format>image/svg+xml</dc:format><dc:type
           rdf:resource="http://purl.org/dc/dcmitype/StillImage" /></cc:Work></rdf:RDF></metadata><defs
     id="defs6" /><g
     transform="matrix(1.3333333,0,0,-1.3333333,0,37.796932)"
     id="g10"><g
       transform="scale(0.1)"
       id="g12"><path
         id="path14"
         style="fill:#231f20;fill-opacity:1;fill-rule:nonzero;stroke:none"
         d="m 615.934,157.313 v 55.261 h 32.761 v -6.582 H 623.59 v -17.375 h 23.64 v -6.586 h -23.64 v -24.718 h -7.656" /><path
         id="path16"
         style="fill:#231f20;fill-opacity:1;fill-rule:nonzero;stroke:none"
         d="m 677.934,181.047 c 0,6.652 -0.391,10.551 -8.125,10.551 -3.672,0 -7.11,-2.141 -7.188,-6.121 h -7.656 c 0.39,8.414 6.973,11.402 14.551,11.402 7.871,0 15.683,-2.371 15.683,-13.082 V 165.43 c 0,-1.684 0.078,-4.903 0.313,-8.117 h -4.903 c -0.683,0 -1.992,-0.383 -2.07,0.535 -0.156,1.761 -0.312,3.449 -0.371,5.207 h -0.156 c -2.383,-4.825 -6.66,-6.887 -11.953,-6.887 -6.661,0 -13.379,3.441 -13.379,10.941 0,10.789 9.55,13.938 18.672,13.938 z m -7.286,-5.063 c -4.433,-0.226 -10.332,-1.836 -10.332,-7.421 0,-4.747 3.301,-7.118 7.579,-7.118 8.574,0 10.195,7.426 10.039,14.539 h -7.286" /><path
         id="path18"
         style="fill:#231f20;fill-opacity:1;fill-rule:nonzero;stroke:none"
         d="m 720.102,183.414 c -0.391,4.816 -2.676,8.184 -7.891,8.184 -6.953,0 -9.629,-6.043 -9.629,-15.075 0,-9.035 2.676,-15.078 9.629,-15.078 4.824,0 7.812,3.141 8.203,8.653 h 7.266 c -0.625,-8.653 -7.051,-13.93 -15.547,-13.93 -12.305,0 -17.207,8.723 -17.207,20.051 0,11.25 5.664,20.66 17.832,20.66 8.105,0 14.238,-5.125 14.609,-13.465 h -7.265" /><path
         id="path20"
         style="fill:#231f20;fill-opacity:1;fill-rule:nonzero;stroke:none"
         d="m 737.855,157.313 v 55.261 h 7.266 v -21.969 h 0.156 c 2.754,4.282 6.895,6.274 12.481,6.274 10.019,0 13.164,-6.656 13.164,-13.543 v -26.023 h -7.266 v 22.734 c 0,6.734 -1.777,11.09 -8.574,11.246 -2.91,0.078 -7.344,-2.145 -8.73,-5.355 -1.68,-3.973 -1.231,-6.739 -1.231,-8.879 v -19.746 h -7.266" /><path
         id="path22"
         style="fill:#231f20;fill-opacity:1;fill-rule:nonzero;stroke:none"
         d="m 784.242,157.313 v 55.261 h 7.266 v -21.969 h 0.156 c 2.754,4.282 6.875,6.274 12.461,6.274 10.039,0 13.164,-6.656 13.164,-13.543 v -26.023 h -7.266 v 22.734 c 0,6.734 -1.757,11.09 -8.574,11.246 -2.91,0.078 -7.344,-2.145 -8.711,-5.355 -1.699,-3.973 -1.23,-6.739 -1.23,-8.879 v -19.746 h -7.266" /><path
         id="path24"
         style="fill:#231f20;fill-opacity:1;fill-rule:nonzero;stroke:none"
         d="m 864.359,176.523 c 0,-11.937 -6.504,-20.355 -19.121,-20.355 -12.636,0 -19.14,8.418 -19.14,20.355 0,11.938 6.504,20.356 19.14,20.356 12.617,0 19.121,-8.418 19.121,-20.356 z m -19.121,-15.078 c 8.633,0 11.465,6.891 11.465,15.078 0,8.192 -2.832,15.075 -11.465,15.075 -8.652,0 -11.484,-6.883 -11.484,-15.075 0,-8.187 2.832,-15.078 11.484,-15.078" /><path
         id="path26"
         style="fill:#231f20;fill-opacity:1;fill-rule:nonzero;stroke:none"
         d="m 896.742,183.414 c -0.39,4.816 -2.676,8.184 -7.89,8.184 -6.954,0 -9.629,-6.043 -9.629,-15.075 0,-9.035 2.675,-15.078 9.629,-15.078 4.824,0 7.812,3.141 8.203,8.653 h 7.265 c -0.605,-8.653 -7.05,-13.93 -15.547,-13.93 -12.304,0 -17.207,8.723 -17.207,20.051 0,11.25 5.664,20.66 17.832,20.66 8.106,0 14.239,-5.125 14.61,-13.465 h -7.266" /><path
         id="path28"
         style="fill:#231f20;fill-opacity:1;fill-rule:nonzero;stroke:none"
         d="m 914.496,157.313 v 55.261 h 7.266 v -21.969 h 0.156 c 2.754,4.282 6.895,6.274 12.48,6.274 10.02,0 13.165,-6.656 13.165,-13.543 v -26.023 h -7.266 v 22.734 c 0,6.734 -1.758,11.09 -8.574,11.246 -2.91,0.078 -7.344,-2.145 -8.731,-5.355 -1.679,-3.973 -1.23,-6.739 -1.23,-8.879 v -19.746 h -7.266" /><path
         id="path30"
         style="fill:#231f20;fill-opacity:1;fill-rule:nonzero;stroke:none"
         d="m 972.348,196.879 c 7.285,0 15.468,-3.063 14.941,-11.781 h -7.656 c 0.293,4.89 -3.457,6.5 -7.656,6.5 -3.907,0 -7.051,-1.832 -7.051,-6.121 0,-4.286 6.582,-4.59 9.336,-5.43 6.523,-2.149 14.023,-2.91 14.023,-11.563 0,-9.414 -9.199,-12.316 -17.07,-12.316 -8.047,0 -14.785,3.672 -14.707,12.547 h 7.656 c 0.156,-4.742 3.379,-7.27 7.813,-7.27 4.277,0 8.652,1.688 8.652,6.66 0,8.571 -23.34,2.145 -23.34,17.145 0,8.031 8.106,11.629 15.059,11.629" /><path
         id="path32"
         style="fill:#231f20;fill-opacity:1;fill-rule:nonzero;stroke:none"
         d="m 1020.41,183.414 c -0.37,4.816 -2.68,8.184 -7.87,8.184 -6.97,0 -9.65,-6.043 -9.65,-15.075 0,-9.035 2.68,-15.078 9.65,-15.078 4.82,0 7.81,3.141 8.18,8.653 h 7.27 c -0.61,-8.653 -7.03,-13.93 -15.53,-13.93 -12.32,0 -17.226,8.723 -17.226,20.051 0,11.25 5.666,20.66 17.836,20.66 8.12,0 14.23,-5.125 14.63,-13.465 h -7.29" /><path
         id="path34"
         style="fill:#231f20;fill-opacity:1;fill-rule:nonzero;stroke:none"
         d="m 1038.18,157.313 v 55.261 h 7.27 v -21.969 h 0.16 c 2.75,4.282 6.87,6.274 12.46,6.274 10.04,0 13.16,-6.656 13.16,-13.543 v -26.023 h -7.27 v 22.734 c 0,6.734 -1.75,11.09 -8.57,11.246 -2.91,0.078 -7.34,-2.145 -8.73,-5.355 -1.68,-3.973 -1.21,-6.739 -1.21,-8.879 v -19.746 h -7.27" /><path
         id="path36"
         style="fill:#231f20;fill-opacity:1;fill-rule:nonzero;stroke:none"
         d="m 1108.81,195.727 h 7.28 v -38.414 h -7.13 v 5.664 h -0.15 c -2.91,-4.825 -7.79,-6.809 -13.17,-6.809 -8.02,0 -12.61,6.117 -12.61,13.852 v 25.707 h 7.26 v -22.723 c 0,-6.656 1.55,-11.559 8.5,-11.559 2.99,0 7.05,1.532 8.57,5.512 1.37,3.598 1.45,8.109 1.45,9.027 v 19.743" /><path
         id="path38"
         style="fill:#231f20;fill-opacity:1;fill-rule:nonzero;stroke:none"
         d="m 1128.03,157.313 v 55.261 h 7.26 v -55.261 h -7.26" /><path
         id="path40"
         style="fill:#231f20;fill-opacity:1;fill-rule:nonzero;stroke:none"
         d="m 1153.44,175.145 c -0.53,-6.739 2.22,-13.7 9.65,-13.7 5.64,0 8.47,2.223 9.31,7.809 h 7.66 c -1.13,-8.727 -7.87,-13.086 -17.05,-13.086 -12.33,0 -17.23,8.723 -17.23,20.051 0,11.25 5.67,20.66 17.83,20.66 11.49,-0.223 16.92,-7.5 16.92,-18.133 v -3.601 z m 19.43,5.05 c 0.16,6.43 -2.75,11.403 -9.78,11.403 -6.06,0 -9.65,-5.125 -9.65,-11.403 h 19.43" /><path
         id="path42"
         style="fill:#231f20;fill-opacity:1;fill-rule:nonzero;stroke:none"
         d="m 1253.85,212.574 v -55.261 h -9.49 l -27.93,46.914 h -0.16 v -46.914 h -6.82 v 55.261 h 10.49 l 26.94,-45.695 h 0.15 v 45.695 h 6.82" /><path
         id="path44"
         style="fill:#231f20;fill-opacity:1;fill-rule:nonzero;stroke:none"
         d="m 1302.83,176.523 c 0,-11.937 -6.5,-20.355 -19.14,-20.355 -12.62,0 -19.12,8.418 -19.12,20.355 0,11.938 6.5,20.356 19.12,20.356 12.64,0 19.14,-8.418 19.14,-20.356 z m -19.14,-15.078 c 8.65,0 11.49,6.891 11.49,15.078 0,8.192 -2.84,15.075 -11.49,15.075 -8.63,0 -11.46,-6.883 -11.46,-15.075 0,-8.187 2.83,-15.078 11.46,-15.078" /><path
         id="path46"
         style="fill:#231f20;fill-opacity:1;fill-rule:nonzero;stroke:none"
         d="m 1319.51,157.313 h -7.26 v 38.414 h 7.26 v -7.418 h 0.16 c 1.07,5.281 5.97,7.961 11.25,7.961 0.92,0 1.68,-0.079 2.52,-0.079 v -6.886 c -1,0.383 -2.13,0.383 -3.13,0.383 -9.2,-0.309 -10.8,-5.208 -10.8,-13.321 v -19.054" /><path
         id="path48"
         style="fill:#231f20;fill-opacity:1;fill-rule:nonzero;stroke:none"
         d="m 1365.66,212.574 h 7.27 v -48.449 c 0,-2.293 0.23,-4.594 0.39,-6.812 h -7.42 l -0.24,5.742 v 0.383 h -0.15 c -2.6,-5.356 -7.66,-7.27 -13.24,-7.27 -11.41,0 -15.92,10.48 -15.92,20.355 0,10.411 5.29,20.356 17.22,20.356 4.91,0 9.73,-1.762 11.94,-6.352 h 0.15 z m -10.78,-51.355 c 8.79,0 10.86,8.183 10.86,15.379 0,6.965 -2.6,15.234 -10.86,15.234 -8.73,0 -10.88,-8.035 -10.88,-15.234 0,-7.196 2.68,-15.379 10.88,-15.379" /><path
         id="path50"
         style="fill:#231f20;fill-opacity:1;fill-rule:nonzero;stroke:none"
         d="m 1441.89,195.727 -13.55,-38.414 h -8.26 l -8.95,31.613 h -0.15 l -9.96,-31.613 h -8.48 l -12.72,38.414 h 7.89 l 9.26,-30.914 h 0.16 l 9.55,30.914 h 9.41 l 8.66,-30.297 h 0.15 l 9.57,30.297 h 7.42" /><path
         id="path52"
         style="fill:#231f20;fill-opacity:1;fill-rule:nonzero;stroke:none"
         d="m 1453.91,175.145 c -0.53,-6.739 2.22,-13.7 9.64,-13.7 5.67,0 8.5,2.223 9.34,7.809 h 7.66 c -1.16,-8.727 -7.89,-13.086 -17.07,-13.086 -12.33,0 -17.23,8.723 -17.23,20.051 0,11.25 5.66,20.66 17.83,20.66 11.49,-0.223 16.92,-7.5 16.92,-18.133 v -3.601 z m 19.45,5.05 c 0.14,6.43 -2.77,11.403 -9.81,11.403 -6.05,0 -9.64,-5.125 -9.64,-11.403 h 19.45" /><path
         id="path54"
         style="fill:#231f20;fill-opacity:1;fill-rule:nonzero;stroke:none"
         d="m 1504.04,196.879 c 7.27,0 15.45,-3.063 14.92,-11.781 h -7.65 c 0.31,4.89 -3.44,6.5 -7.66,6.5 -3.9,0 -7.03,-1.832 -7.03,-6.121 0,-4.286 6.58,-4.59 9.34,-5.43 6.5,-2.149 14,-2.91 14,-11.563 0,-9.414 -9.18,-12.316 -17.07,-12.316 -8.03,0 -14.76,3.672 -14.69,12.547 h 7.66 c 0.14,-4.742 3.36,-7.27 7.79,-7.27 4.3,0 8.65,1.688 8.65,6.66 0,8.571 -23.34,2.145 -23.34,17.145 0,8.031 8.11,11.629 15.08,11.629" /><path
         id="path56"
         style="fill:#231f20;fill-opacity:1;fill-rule:nonzero;stroke:none"
         d="m 1532.36,195.727 v 8.195 l 7.27,2.293 v -10.488 l 8.89,0.234 v -5.434 l -8.89,0.078 v -24.796 c 0,-2.754 2.15,-4.055 4.75,-4.055 1.15,0 2.67,0.156 3.82,0.461 v -5.594 c -1.68,-0.078 -3.28,-0.453 -4.98,-0.453 -1.76,0 -3.12,0.07 -4.88,0.375 -1.15,0.234 -3.07,0.848 -4.3,2.527 -1.31,1.844 -1.68,1.993 -1.68,7.121 v 24.414 l -6.58,-0.078 v 5.434 l 6.58,-0.234" /><path
         id="path58"
         style="fill:#231f20;fill-opacity:1;fill-rule:nonzero;stroke:none"
         d="m 1570.47,196.879 c 7.28,0 15.47,-3.063 14.92,-11.781 h -7.64 c 0.3,4.89 -3.45,6.5 -7.65,6.5 -3.91,0 -7.05,-1.832 -7.05,-6.121 0,-4.286 6.58,-4.59 9.33,-5.43 6.51,-2.149 14.01,-2.91 14.01,-11.563 0,-9.414 -9.18,-12.316 -17.07,-12.316 -8.03,0 -14.77,3.672 -14.69,12.547 h 7.66 c 0.15,-4.742 3.35,-7.27 7.81,-7.27 4.28,0 8.65,1.688 8.65,6.66 0,8.571 -23.36,2.145 -23.36,17.145 0,8.031 8.13,11.629 15.08,11.629" /><path
         id="path60"
         style="fill:#231f20;fill-opacity:1;fill-rule:nonzero;stroke:none"
         d="m 1618.54,183.414 c -0.4,4.816 -2.68,8.184 -7.88,8.184 -6.97,0 -9.64,-6.043 -9.64,-15.075 0,-9.035 2.67,-15.078 9.64,-15.078 4.81,0 7.8,3.141 8.19,8.653 h 7.26 c -0.6,-8.653 -7.05,-13.93 -15.52,-13.93 -12.33,0 -17.23,8.723 -17.23,20.051 0,11.25 5.66,20.66 17.83,20.66 8.11,0 14.24,-5.125 14.61,-13.465 h -7.26" /><path
         id="path62"
         style="fill:#231f20;fill-opacity:1;fill-rule:nonzero;stroke:none"
         d="m 1635.92,157.313 v 55.261 h 7.26 v -21.969 h 0.16 c 2.75,4.282 6.87,6.274 12.46,6.274 10.04,0 13.16,-6.656 13.16,-13.543 v -26.023 h -7.26 v 22.734 c 0,6.734 -1.76,11.09 -8.57,11.246 -2.92,0.078 -7.35,-2.145 -8.74,-5.355 -1.68,-3.973 -1.21,-6.739 -1.21,-8.879 v -19.746 h -7.26" /><path
         id="path64"
         style="fill:#231f20;fill-opacity:1;fill-rule:nonzero;stroke:none"
         d="m 1736.78,195.727 -13.54,-38.414 h -8.28 l -8.94,31.613 h -0.16 l -9.94,-31.613 h -8.5 l -12.71,38.414 h 7.89 l 9.26,-30.914 h 0.15 l 9.57,30.914 h 9.42 l 8.65,-30.297 h 0.14 l 9.57,30.297 h 7.42" /><path
         id="path66"
         style="fill:#231f20;fill-opacity:1;fill-rule:nonzero;stroke:none"
         d="m 1748.81,175.145 c -0.55,-6.739 2.21,-13.7 9.63,-13.7 5.66,0 8.49,2.223 9.33,7.809 h 7.66 c -1.15,-8.727 -7.87,-13.086 -17.07,-13.086 -12.31,0 -17.21,8.723 -17.21,20.051 0,11.25 5.67,20.66 17.83,20.66 11.49,-0.223 16.92,-7.5 16.92,-18.133 v -3.601 z m 19.43,5.05 c 0.16,6.43 -2.75,11.403 -9.8,11.403 -6.04,0 -9.63,-5.125 -9.63,-11.403 h 19.43" /><path
         id="path68"
         style="fill:#231f20;fill-opacity:1;fill-rule:nonzero;stroke:none"
         d="m 1784.63,212.574 h 8.63 v -7.886 h -8.63 z m 0.68,-55.261 v 38.414 h 7.27 v -38.414 h -7.27" /><path
         id="path70"
         style="fill:#231f20;fill-opacity:1;fill-rule:nonzero;stroke:none"
         d="m 1831.31,157.313 h -27.93 v 5.05 l 19.35,28.321 h -19.06 v 5.043 h 26.88 v -5.043 l -19.3,-28.321 h 20.06 v -5.05" /><path
         id="path72"
         style="fill:#231f20;fill-opacity:1;fill-rule:nonzero;stroke:none"
         d="m 615.941,70.8789 v 55.2541 h 7.653 v -23.731 h 26.254 v 23.731 h 7.656 V 70.8789 h -7.656 V 95.8203 H 623.594 V 70.8789 h -7.653" /><path
         id="path74"
         style="fill:#231f20;fill-opacity:1;fill-rule:nonzero;stroke:none"
         d="m 705.727,90.0781 c 0,-11.9336 -6.504,-20.3515 -19.141,-20.3515 -12.637,0 -19.141,8.4179 -19.141,20.3515 0,11.9339 6.504,20.3709 19.141,20.3709 12.637,0 19.141,-8.437 19.141,-20.3709 z M 686.586,75 c 8.652,0 11.484,6.8945 11.484,15.0781 0,8.1836 -2.832,15.0779 -11.484,15.0779 -8.652,0 -11.484,-6.8943 -11.484,-15.0779 C 675.102,81.8945 677.934,75 686.586,75" /><path
         id="path76"
         style="fill:#231f20;fill-opacity:1;fill-rule:nonzero;stroke:none"
         d="m 738.48,96.9727 c -0.39,4.8243 -2.675,8.1833 -7.89,8.1833 -6.953,0 -9.649,-6.0544 -9.649,-15.0779 0,-9.0234 2.696,-15.0781 9.649,-15.0781 4.824,0 7.812,3.1445 8.183,8.6523 h 7.286 C 745.434,75 739.008,69.7266 730.512,69.7266 c -12.324,0 -17.227,8.7109 -17.227,20.0586 0,11.2308 5.684,20.6638 17.832,20.6638 8.125,0 14.238,-5.136 14.629,-13.4763 h -7.266" /><path
         id="path78"
         style="fill:#231f20;fill-opacity:1;fill-rule:nonzero;stroke:none"
         d="m 755.473,70.8789 v 55.2541 h 7.265 V 104.16 h 0.157 c 2.753,4.297 6.875,6.289 12.46,6.289 10.04,0 13.165,-6.66 13.165,-13.5545 V 70.8789 h -7.266 v 22.7149 c 0,6.7382 -1.758,11.1132 -8.574,11.2502 -2.91,0.078 -7.344,-2.129 -8.731,-5.3518 -1.679,-3.9844 -1.211,-6.7383 -1.211,-8.8672 V 70.8789 h -7.265" /><path
         id="path80"
         style="fill:#231f20;fill-opacity:1;fill-rule:nonzero;stroke:none"
         d="m 813.324,110.449 c 7.266,0 15.469,-3.066 14.922,-11.7967 h -7.656 c 0.312,4.9027 -3.438,6.5037 -7.637,6.5037 -3.906,0 -7.051,-1.836 -7.051,-6.113 0,-4.2969 6.582,-4.6094 9.336,-5.4492 6.504,-2.129 14.004,-2.8907 14.004,-11.543 0,-9.4141 -9.179,-12.3242 -17.07,-12.3242 -8.027,0 -14.766,3.6718 -14.688,12.539 h 7.657 C 805.297,77.5195 808.5,75 812.953,75 c 4.277,0 8.633,1.6797 8.633,6.6602 0,8.5742 -23.34,2.1484 -23.34,17.1484 0,8.0274 8.125,11.6404 15.078,11.6404" /><path
         id="path82"
         style="fill:#231f20;fill-opacity:1;fill-rule:nonzero;stroke:none"
         d="m 861.391,96.9727 c -0.391,4.8243 -2.676,8.1833 -7.891,8.1833 -6.953,0 -9.629,-6.0544 -9.629,-15.0779 0,-9.0234 2.676,-15.0781 9.629,-15.0781 4.824,0 7.813,3.1445 8.203,8.6523 h 7.266 C 868.363,75 861.918,69.7266 853.422,69.7266 c -12.305,0 -17.207,8.7109 -17.207,20.0586 0,11.2308 5.664,20.6638 17.832,20.6638 8.105,0 14.238,-5.136 14.609,-13.4763 h -7.265" /><path
         id="path84"
         style="fill:#231f20;fill-opacity:1;fill-rule:nonzero;stroke:none"
         d="m 879.145,70.8789 v 55.2541 h 7.265 V 104.16 h 0.156 c 2.754,4.297 6.895,6.289 12.481,6.289 10.019,0 13.164,-6.66 13.164,-13.5545 V 70.8789 h -7.266 v 22.7149 c 0,6.7382 -1.757,11.1132 -8.574,11.2502 -2.91,0.078 -7.344,-2.129 -8.73,-5.3518 -1.68,-3.9844 -1.231,-6.7383 -1.231,-8.8672 V 70.8789 h -7.265" /><path
         id="path86"
         style="fill:#231f20;fill-opacity:1;fill-rule:nonzero;stroke:none"
         d="m 949.789,109.297 h 7.266 V 70.8789 h -7.11 v 5.6641 h -0.156 c -2.91,-4.8242 -7.812,-6.8164 -13.164,-6.8164 -8.027,0 -12.637,6.1132 -12.637,13.8476 v 25.7228 h 7.285 V 86.5625 C 931.273,79.9023 932.797,75 939.77,75 c 2.968,0 7.031,1.543 8.574,5.5078 1.367,3.5938 1.445,8.125 1.445,9.043 v 19.7462" /><path
         id="path88"
         style="fill:#231f20;fill-opacity:1;fill-rule:nonzero;stroke:none"
         d="m 968.988,70.8789 v 55.2541 h 7.285 V 70.8789 h -7.285" /><path
         id="path90"
         style="fill:#231f20;fill-opacity:1;fill-rule:nonzero;stroke:none"
         d="M 993.633,88.7109 C 993.105,81.9727 995.859,75 1003.28,75 c 5.67,0 8.5,2.2266 9.34,7.8125 h 7.65 c -1.15,-8.7305 -7.89,-13.0859 -17.07,-13.0859 -12.321,0 -17.22,8.7109 -17.22,20.0586 0,11.2308 5.661,20.6638 17.85,20.6638 11.46,-0.234 16.89,-7.519 16.89,-18.1443 v -3.5938 z m 19.457,5.0391 c 0.13,6.426 -2.78,11.406 -9.81,11.406 -6.053,0 -9.647,-5.136 -9.647,-11.406 h 19.457" /><path
         id="path92"
         style="fill:#231f20;fill-opacity:1;fill-rule:nonzero;stroke:none"
         d="m 1051.58,70.8789 v 33.3591 h -7.5 v 5.059 h 7.5 v 7.344 c 0.22,8.418 6.58,10.644 12.01,10.644 1.76,0 3.44,-0.469 5.2,-0.781 v -6.035 c -1.21,0.078 -2.44,0.234 -3.67,0.234 -4.12,0 -6.51,-1.074 -6.27,-5.293 v -6.113 h 8.86 v -5.059 h -8.86 V 70.8789 h -7.27" /><path
         id="path94"
         style="fill:#231f20;fill-opacity:1;fill-rule:nonzero;stroke:none"
         d="m 1101.78,109.297 h 7.26 V 70.8789 h -7.11 v 5.6641 h -0.15 c -2.91,-4.8242 -7.8,-6.8164 -13.17,-6.8164 -8.02,0 -12.61,6.1132 -12.61,13.8476 v 25.7228 h 7.26 V 86.5625 c 0,-6.6602 1.53,-11.5625 8.5,-11.5625 2.99,0 7.05,1.543 8.57,5.5078 1.37,3.5938 1.45,8.125 1.45,9.043 z m -20.04,9.023 v 7.813 h 6.95 v -7.813 z m 14.37,0 v 7.813 h 6.98 v -7.813 h -6.98" /><path
         id="path96"
         style="fill:#231f20;fill-opacity:1;fill-rule:nonzero;stroke:none"
         d="m 1131.02,70.8789 h -7.27 v 38.4181 h 7.27 v -7.422 h 0.15 c 1.08,5.273 5.98,7.949 11.25,7.949 0.92,0 1.68,-0.078 2.52,-0.078 v -6.875 c -0.99,0.371 -2.13,0.371 -3.12,0.371 -9.18,-0.312 -10.8,-5.1951 -10.8,-13.3201 v -19.043" /><path
         id="path98"
         style="fill:#231f20;fill-opacity:1;fill-rule:nonzero;stroke:none"
         d="m 1206.7,112.344 c -1.37,6.582 -7.11,8.359 -13.01,8.359 -13.53,0 -18.44,-11.875 -18.12,-22.2069 0.6,-14.1602 4.88,-21.8945 20.74,-22.1875 3.75,0 7.5,0.6055 11.01,1.7578 v 15.6055 h -12.55 v 6.5821 h 20.21 V 72.9297 c -6.37,-1.9141 -12.71,-3.2031 -18.98,-3.2031 -7.82,0 -14.16,0.9961 -20.22,6.3476 -6.11,5.3516 -8.26,14.6289 -8.26,22.4219 0,5.7419 1.91,12.0119 4.75,16.9919 4.82,8.418 12.93,11.797 22.34,11.797 9.34,0 19.67,-4.297 20.14,-14.941 h -8.05" /><path
         id="path100"
         style="fill:#231f20;fill-opacity:1;fill-rule:nonzero;stroke:none"
         d="M 1234.18,88.7109 C 1233.65,81.9727 1236.41,75 1243.83,75 c 5.66,0 8.49,2.2266 9.33,7.8125 h 7.66 c -1.15,-8.7305 -7.89,-13.0859 -17.07,-13.0859 -12.32,0 -17.23,8.7109 -17.23,20.0586 0,11.2308 5.67,20.6638 17.84,20.6638 11.48,-0.234 16.91,-7.519 16.91,-18.1443 v -3.5938 z m 19.45,5.0391 c 0.14,6.426 -2.75,11.406 -9.8,11.406 -6.04,0 -9.65,-5.136 -9.65,-11.406 h 19.45" /><path
         id="path102"
         style="fill:#231f20;fill-opacity:1;fill-rule:nonzero;stroke:none"
         d="m 1285.08,110.449 c 7.26,0 15.47,-3.066 14.92,-11.7967 h -7.66 c 0.32,4.9027 -3.43,6.5037 -7.65,6.5037 -3.89,0 -7.03,-1.836 -7.03,-6.113 0,-4.2969 6.58,-4.6094 9.33,-5.4492 6.51,-2.129 14.01,-2.8907 14.01,-11.543 0,-9.4141 -9.18,-12.3242 -17.07,-12.3242 -8.03,0 -14.77,3.6718 -14.69,12.539 h 7.65 c 0.16,-4.7461 3.36,-7.2656 7.8,-7.2656 4.29,0 8.65,1.6797 8.65,6.6602 0,8.5742 -23.34,2.1484 -23.34,17.1484 0,8.0274 8.13,11.6404 15.08,11.6404" /><path
         id="path104"
         style="fill:#231f20;fill-opacity:1;fill-rule:nonzero;stroke:none"
         d="m 1312.25,109.297 v 8.183 l 7.28,2.286 v -10.469 l 8.87,0.234 v -5.449 l -8.87,0.078 V 79.3555 c 0,-2.7539 2.13,-4.043 4.73,-4.043 1.15,0 2.69,0.1563 3.83,0.4492 v -5.5859 c -1.68,-0.0781 -3.29,-0.4492 -4.96,-0.4492 -1.76,0 -3.15,0.0781 -4.91,0.3711 -1.15,0.2343 -3.06,0.8593 -4.27,2.539 -1.31,1.836 -1.7,1.9922 -1.7,7.1094 V 104.16 l -6.59,-0.078 v 5.449 l 6.59,-0.234" /><path
         id="path106"
         style="fill:#231f20;fill-opacity:1;fill-rule:nonzero;stroke:none"
         d="m 1360.55,94.5898 c 0,6.6602 -0.39,10.5662 -8.11,10.5662 -3.69,0 -7.13,-2.148 -7.21,-6.113 h -7.65 c 0.39,8.418 6.97,11.406 14.55,11.406 7.87,0 15.68,-2.383 15.68,-13.1052 V 78.9844 c 0,-1.6797 0.08,-4.9024 0.32,-8.1055 h -4.91 c -0.68,0 -1.99,-0.3906 -2.07,0.5274 -0.15,1.7578 -0.29,3.4375 -0.37,5.1953 h -0.15 c -2.39,-4.8047 -6.67,-6.875 -11.96,-6.875 -6.64,0 -13.38,3.4375 -13.38,10.9375 0,10.8007 9.55,13.9257 18.67,13.9257 z m -7.27,-5.039 c -4.45,-0.2344 -10.33,-1.836 -10.33,-7.4219 0,-4.7461 3.28,-7.1289 7.58,-7.1289 8.55,0 10.17,7.4219 10.02,14.5508 h -7.27" /><path
         id="path108"
         style="fill:#231f20;fill-opacity:1;fill-rule:nonzero;stroke:none"
         d="m 1381.58,70.8789 v 55.2541 h 7.29 V 70.8789 h -7.29" /><path
         id="path110"
         style="fill:#231f20;fill-opacity:1;fill-rule:nonzero;stroke:none"
         d="m 1403.87,109.297 v 8.183 l 7.26,2.286 v -10.469 l 8.89,0.234 v -5.449 l -8.89,0.078 V 79.3555 c 0,-2.7539 2.15,-4.043 4.75,-4.043 1.15,0 2.67,0.1563 3.83,0.4492 v -5.5859 c -1.68,-0.0781 -3.3,-0.4492 -4.98,-0.4492 -1.76,0 -3.13,0.0781 -4.89,0.3711 -1.15,0.2343 -3.06,0.8593 -4.29,2.539 -1.31,1.836 -1.68,1.9922 -1.68,7.1094 V 104.16 l -6.58,-0.078 v 5.449 l 6.58,-0.234" /><path
         id="path112"
         style="fill:#231f20;fill-opacity:1;fill-rule:nonzero;stroke:none"
         d="m 1455.53,109.297 h 7.26 V 70.8789 h -7.11 v 5.6641 h -0.15 c -2.91,-4.8242 -7.82,-6.8164 -13.17,-6.8164 -8.04,0 -12.63,6.1132 -12.63,13.8476 v 25.7228 h 7.28 V 86.5625 c 0,-6.6602 1.53,-11.5625 8.5,-11.5625 2.97,0 7.03,1.543 8.55,5.5078 1.39,3.5938 1.47,8.125 1.47,9.043 v 19.7462" /><path
         id="path114"
         style="fill:#231f20;fill-opacity:1;fill-rule:nonzero;stroke:none"
         d="m 1484.38,103.633 h 0.15 c 2.46,4.824 7.81,6.816 11.64,6.816 2.68,0 14.53,-0.703 14.53,-13.0271 v -26.543 h -7.26 v 24.1797 c 0,6.3474 -2.68,9.7854 -8.81,9.7854 0,0 -3.97,0.234 -7.03,-2.832 -1.08,-1.055 -3.07,-2.7542 -3.07,-10.2542 V 70.8789 h -7.26 v 38.4181 h 7.11 v -5.664" /><path
         id="path116"
         style="fill:#231f20;fill-opacity:1;fill-rule:nonzero;stroke:none"
         d="m 1551.27,109.297 h 7.5 c -0.23,-2.305 -0.47,-4.59 -0.47,-6.895 V 75.3906 c 0,-14.082 -6.11,-19.8242 -20.19,-19.8242 -8.27,0 -14.16,3.5156 -14.24,12.4024 h 7.65 c 0.32,-5.1368 3.83,-7.129 8.95,-7.129 10.35,0 10.35,8.5743 10.57,17.2266 h -0.22 c -2.3,-4.5898 -7.89,-6.5039 -12.64,-6.5039 -11.72,0 -16.38,8.2617 -16.38,19.0625 0,11.094 6.21,19.824 17.83,19.824 3.75,0 7.89,-1.543 10.27,-5.058 0.14,-0.157 1.14,-2.383 1.14,-1.836 z m -11.02,-32.4611 c 7.88,0 10.79,6.7383 10.79,14.1602 0,7.4219 -2.91,14.1599 -10.79,14.1599 -8.49,0 -10.8,-8.1052 -10.8,-14.1599 0,-6.0352 2.31,-14.1602 10.8,-14.1602" /><path
         id="path118"
         style="fill:#231f20;fill-opacity:1;fill-rule:nonzero;stroke:none"
         d="M 1611.74,109.297 H 1619 V 70.8789 h -7.12 v 5.6641 h -0.14 c -2.91,-4.8242 -7.81,-6.8164 -13.17,-6.8164 -8.04,0 -12.63,6.1132 -12.63,13.8476 v 25.7228 h 7.26 V 86.5625 c 0,-6.6602 1.55,-11.5625 8.5,-11.5625 2.99,0 7.05,1.543 8.57,5.5078 1.39,3.5938 1.47,8.125 1.47,9.043 v 19.7462" /><path
         id="path120"
         style="fill:#231f20;fill-opacity:1;fill-rule:nonzero;stroke:none"
         d="m 1640.59,103.633 h 0.15 c 2.44,4.824 7.8,6.816 11.62,6.816 2.7,0 14.55,-0.703 14.55,-13.0271 v -26.543 h -7.26 v 24.1797 c 0,6.3474 -2.68,9.7854 -8.81,9.7854 0,0 -3.98,0.234 -7.05,-2.832 -1.06,-1.055 -3.05,-2.7542 -3.05,-10.2542 V 70.8789 h -7.26 v 38.4181 h 7.11 v -5.664" /><path
         id="path122"
         style="fill:#231f20;fill-opacity:1;fill-rule:nonzero;stroke:none"
         d="m 1706.02,126.133 h 7.28 V 77.6758 c 0,-2.2852 0.22,-4.5899 0.37,-6.7969 h -7.42 l -0.23,5.7227 v 0.3906 h -0.16 c -2.6,-5.3516 -7.64,-7.2656 -13.22,-7.2656 -11.41,0 -15.92,10.4882 -15.92,20.3515 0,10.4099 5.27,20.3709 17.21,20.3709 4.9,0 9.72,-1.777 11.93,-6.367 h 0.16 z m -10.79,-51.3674 c 8.79,0 10.86,8.2032 10.86,15.3907 0,6.9726 -2.59,15.2347 -10.86,15.2347 -8.73,0 -10.87,-8.0472 -10.87,-15.2347 0,-7.1875 2.67,-15.3907 10.87,-15.3907" /><path
         id="path124"
         style="fill:#231f20;fill-opacity:1;fill-rule:nonzero;stroke:none"
         d="m 1746.89,70.8789 v 55.2541 h 7.66 v -23.965 l 23.03,23.965 h 10.49 l -24.73,-24.727 27.48,-30.5271 h -10.78 l -25.49,29.2971 V 70.8789 h -7.66" /><path
         id="path126"
         style="fill:#231f20;fill-opacity:1;fill-rule:nonzero;stroke:none"
         d="m 1824.36,109.297 h 7.26 V 70.8789 h -7.13 v 5.6641 h -0.13 c -2.91,-4.8242 -7.82,-6.8164 -13.17,-6.8164 -8.05,0 -12.64,6.1132 -12.64,13.8476 v 25.7228 h 7.27 V 86.5625 c 0,-6.6602 1.54,-11.5625 8.5,-11.5625 2.98,0 7.05,1.543 8.57,5.5078 1.39,3.5938 1.47,8.125 1.47,9.043 v 19.7462" /><path
         id="path128"
         style="fill:#231f20;fill-opacity:1;fill-rule:nonzero;stroke:none"
         d="m 1853.2,103.633 h 0.16 c 2.44,4.824 7.79,6.816 11.62,6.816 2.68,0 14.55,-0.703 14.55,-13.0271 v -26.543 h -7.26 v 24.1797 c 0,6.3474 -2.7,9.7854 -8.81,9.7854 0,0 -3.99,0.234 -7.05,-2.832 -1.06,-1.055 -3.05,-2.7542 -3.05,-10.2542 V 70.8789 h -7.29 v 38.4181 h 7.13 v -5.664" /><path
         id="path130"
         style="fill:#231f20;fill-opacity:1;fill-rule:nonzero;stroke:none"
         d="m 1905.86,110.449 c 7.27,0 15.45,-3.066 14.92,-11.7967 h -7.65 c 0.31,4.9027 -3.44,6.5037 -7.66,6.5037 -3.91,0 -7.03,-1.836 -7.03,-6.113 0,-4.2969 6.58,-4.6094 9.33,-5.4492 6.51,-2.129 14.01,-2.8907 14.01,-11.543 0,-9.4141 -9.18,-12.3242 -17.07,-12.3242 -8.03,0 -14.77,3.6718 -14.69,12.539 h 7.64 c 0.15,-4.7461 3.38,-7.2656 7.81,-7.2656 4.3,0 8.65,1.6797 8.65,6.6602 0,8.5742 -23.34,2.1484 -23.34,17.1484 0,8.0274 8.11,11.6404 15.08,11.6404" /><path
         id="path132"
         style="fill:#231f20;fill-opacity:1;fill-rule:nonzero;stroke:none"
         d="m 1933.03,109.297 v 8.183 l 7.26,2.286 v -10.469 l 8.89,0.234 v -5.449 l -8.89,0.078 V 79.3555 c 0,-2.7539 2.15,-4.043 4.75,-4.043 1.15,0 2.67,0.1563 3.83,0.4492 v -5.5859 c -1.68,-0.0781 -3.28,-0.4492 -4.98,-0.4492 -1.76,0 -3.13,0.0781 -4.89,0.3711 -1.15,0.2343 -3.06,0.8593 -4.29,2.539 -1.31,1.836 -1.68,1.9922 -1.68,7.1094 V 104.16 l -6.58,-0.078 v 5.449 l 6.58,-0.234" /><path
         id="path134"
         style="fill:#231f20;fill-opacity:1;fill-rule:nonzero;stroke:none"
         d="m 208.195,0 v 283.477 h -9.699 V 0 h 9.699" /><path
         id="path136"
         style="fill:#231f20;fill-opacity:1;fill-rule:nonzero;stroke:none"
         d="m 52.7266,189.238 c 4.5976,6.489 15.1445,26.774 45.9648,26.774 21.7186,0 33.2616,-8.653 37.8516,-12.981 13.254,-12.984 14.062,-31.64 14.062,-42.176 V 70.8984 H 94.9023 v 79.0666 c 0,1.598 -0.2539,20.078 -18.9257,20.078 -19.7461,0 -20.2735,-18.141 -20.2735,-22.988 V 70.8984 H 0 V 212.5 h 52.7266 v -23.262" /><path
         id="path138"
         style="fill:#231f20;fill-opacity:1;fill-rule:nonzero;stroke:none"
         d="m 455.391,215.754 c -10.438,0 -18.907,-8.469 -18.907,-18.902 0,-10.442 8.469,-18.899 18.907,-18.899 9.57,0 13.808,6.899 13.925,6.551 5.411,-16.512 -23.289,-102.1407 -62.519,-102.1407 -12.695,0 -16.629,10.2734 -16.629,23.5747 0,15.722 4.539,31.753 10.293,53.527 6.043,21.461 11.484,42.031 14.519,53.035 H 377.188 C 372.031,193.93 335.051,85.0781 303.691,85.0781 c -3.925,0 -8.164,4.2383 -8.164,11.7969 0,4.219 3.625,19.043 5.45,24.492 l 12.382,42.328 c 2.715,8.774 6.653,20.25 6.653,28.723 0,14.812 -10.274,23.285 -22.364,23.285 -34.171,0 -48.378,-30.535 -55.351,-42.933 l 5.762,-3.633 c 3.32,5.437 18.437,31.136 28.718,31.136 1.516,0 2.727,-1.812 2.727,-7.25 0,-3.628 -2.109,-11.789 -4.238,-19.347 l -13,-42.938 C 260.148,122.871 255,107.754 255,96.875 c 0,-19.9609 15.129,-29.9414 28.43,-29.9414 48.484,0 69.55,58.6714 76.504,75.5894 l 0.605,-0.605 c -0.91,-3.328 -5.148,-21.156 -5.148,-30.238 0,-25.9964 11.613,-44.7464 37.011,-44.7464 73.625,0 113.801,148.8204 62.989,148.8204" /></g></g></svg>